<svg width="25" height="25" viewBox="0 0 25 25" fill="none" xmlns="http://www.w3.org/2000/svg">
<path fill-rule="evenodd" clip-rule="evenodd" d="M12.8 3.27197C9.95733 3.27197 7.05005 5.7017 7.05005 9.41852C7.05005 12.2004 8.18587 14.9096 9.52801 17.1293C10.7365 19.128 12.0793 20.676 12.8 21.4473C13.5208 20.676 14.8636 19.128 16.0721 17.1293C17.4142 14.9096 18.55 12.2004 18.55 9.41852C18.55 5.7017 15.6428 3.27197 12.8 3.27197ZM5.55005 9.41852C5.55005 4.85949 9.14276 1.77197 12.8 1.77197C16.4573 1.77197 20.05 4.85949 20.05 9.41852C20.05 12.5882 18.7655 15.5737 17.3557 17.9054C15.9406 20.2459 14.3582 21.9948 13.6732 22.7066C13.1929 23.2057 12.4072 23.2057 11.9269 22.7066C11.2419 21.9948 9.65954 20.2459 8.24441 17.9054C6.83456 15.5737 5.55005 12.5882 5.55005 9.41852Z" fill="#14142B"/>
<path fill-rule="evenodd" clip-rule="evenodd" d="M12.8 7.75C11.8336 7.75 11.05 8.5335 11.05 9.5C11.05 10.4665 11.8336 11.25 12.8 11.25C13.7665 11.25 14.55 10.4665 14.55 9.5C14.55 8.5335 13.7665 7.75 12.8 7.75ZM9.55005 9.5C9.55005 7.70507 11.0051 6.25 12.8 6.25C14.595 6.25 16.05 7.70507 16.05 9.5C16.05 11.2949 14.595 12.75 12.8 12.75C11.0051 12.75 9.55005 11.2949 9.55005 9.5Z" fill="#14142B"/>
</svg>
